<?xml version="1.0" encoding="UTF-8" standalone="no"?>
<!-- Created with Inkscape (http://www.inkscape.org/) -->

<svg
   xmlns:dc="http://purl.org/dc/elements/1.1/"
   xmlns:cc="http://creativecommons.org/ns#"
   xmlns:rdf="http://www.w3.org/1999/02/22-rdf-syntax-ns#"
   xmlns:svg="http://www.w3.org/2000/svg"
   xmlns="http://www.w3.org/2000/svg"
   xmlns:sodipodi="http://sodipodi.sourceforge.net/DTD/sodipodi-0.dtd"
   xmlns:inkscape="http://www.inkscape.org/namespaces/inkscape"
   width="744.09448819"
   height="1052.3622047"
   id="svg2"
   version="1.1"
   inkscape:version="0.48.5 r10040"
   sodipodi:docname="fcm_problem.svg">
  <defs
     id="defs4" />
  <sodipodi:namedview
     id="base"
     pagecolor="#ffffff"
     bordercolor="#666666"
     borderopacity="1.0"
     inkscape:pageopacity="0.0"
     inkscape:pageshadow="2"
     inkscape:zoom="1.979899"
     inkscape:cx="236.85668"
     inkscape:cy="600.48531"
     inkscape:document-units="px"
     inkscape:current-layer="layer1"
     showgrid="false"
     inkscape:window-width="1920"
     inkscape:window-height="1053"
     inkscape:window-x="1360"
     inkscape:window-y="27"
     inkscape:window-maximized="1" />
  <metadata
     id="metadata7">
    <rdf:RDF>
      <cc:Work
         rdf:about="">
        <dc:format>image/svg+xml</dc:format>
        <dc:type
           rdf:resource="http://purl.org/dc/dcmitype/StillImage" />
        <dc:title></dc:title>
      </cc:Work>
    </rdf:RDF>
  </metadata>
  <g
     inkscape:label="Layer 1"
     inkscape:groupmode="layer"
     id="layer1">
    <text
       xml:space="preserve"
       style="font-size:40px;font-style:normal;font-weight:normal;line-height:125%;letter-spacing:0px;word-spacing:0px;fill:#000000;fill-opacity:1;stroke:none;font-family:Sans"
       x="332.34018"
       y="515.46613"
       id="text3010"
       sodipodi:linespacing="125%"><tspan
         sodipodi:role="line"
         id="tspan3012"></tspan></text>
    <path
       style="fill:#000000"
       d="m 298.7497,436.45618 c 0.1747,-0.28268 0.76655,-0.51395 1.3152,-0.51395 0.9124,0 0.99756,-0.38879 0.99756,-4.55425 l 0,-4.55425 -1.28487,0.24562 c -1.59689,0.30527 -1.72041,-0.68782 -0.12848,-1.03307 0.636,-0.13794 1.56111,-0.42092 2.05579,-0.62885 0.8238,-0.34628 0.8994,0.0802 0.8994,5.07337 0,5.05355 0.0728,5.45143 0.99756,5.45143 0.54866,0 1.1405,0.23127 1.3152,0.51395 0.19954,0.32285 -0.947,0.51394 -3.08368,0.51394 -2.13667,0 -3.28322,-0.19109 -3.08368,-0.51394 z M 285.73365,432.183 c -2.12567,-2.26268 -1.15488,-7.15527 1.93575,-9.75587 1.73717,-1.46173 3.07888,-1.71944 4.63,-0.8893 0.82512,0.44159 1.02478,0.14113 1.70764,-2.56973 0.74913,-2.97392 0.74164,-3.06979 -0.24005,-3.06979 -1.80933,0 -0.66149,-1.27893 1.29633,-1.44437 2.38698,-0.20172 2.38724,-0.17855 0.0935,8.38265 -1.8497,6.90388 -2.19573,9.50801 -1.2634,9.50801 0.29709,0 0.88883,-0.83446 1.31497,-1.85436 0.84855,-2.03088 1.54187,-2.03378 1.03251,-0.004 -0.64914,2.58638 -2.62964,3.58513 -4.13136,2.08341 -0.72828,-0.72827 -0.91013,-0.72827 -1.94989,0 -1.61432,1.13072 -3.12468,0.99888 -4.42602,-0.38633 z m 4.40345,-0.99478 c 1.41831,-1.52626 2.82692,-6.90133 2.14333,-8.17864 -1.12943,-2.11035 -3.57927,-0.59671 -4.86386,3.00515 -0.74565,2.09076 -0.96918,5.42004 -0.40198,5.98724 0.68096,0.68097 2.06988,0.31901 3.12251,-0.81375 z"
       id="path3311"
       inkscape:connector-curvature="0"
       sodipodi:nodetypes="ssscsssssssscsssssssscssccsssss" />
    <path
       style="fill:#000000"
       d="m 402.45252,435.66105 c 3.00799,-3.249 3.8171,-5.10053 2.94277,-6.73422 -0.58126,-1.08609 -2.32577,-1.32675 -3.59198,-0.49553 -0.66571,0.437 -0.67022,0.57087 -0.033,0.98085 0.61409,0.39513 0.62419,0.61174 0.0603,1.29121 -0.88121,1.06179 -2.0859,0.1548 -1.70894,-1.28666 0.68924,-2.63568 4.51895,-3.3422 6.63678,-1.22438 1.80931,1.80931 1.31818,3.47946 -1.91935,6.52696 l -2.59348,2.44124 2.10776,0 c 1.39946,0 2.20717,-0.25906 2.4036,-0.77092 0.5142,-1.33999 1.04503,-0.8344 0.80942,0.77092 l -0.22628,1.54184 -3.85163,0 -3.85163,0 2.81571,-3.04131 z m -14.43619,-1.74582 c -2.12566,-2.26267 -1.15487,-7.15527 1.93575,-9.75585 1.73718,-1.46174 3.07888,-1.71945 4.63001,-0.88931 0.82511,0.44158 1.02477,0.14113 1.70764,-2.56973 0.74913,-2.97392 0.74163,-3.06979 -0.24006,-3.06979 -1.80932,0 -0.66148,-1.27893 1.29634,-1.44438 2.38698,-0.20171 2.38723,-0.17854 0.0935,8.38266 -1.8497,6.90388 -2.19573,9.50801 -1.2634,9.50801 0.29708,0 0.88883,-0.83447 1.31497,-1.85437 0.84855,-2.03087 1.54187,-2.03378 1.03251,-0.004 -0.64914,2.58638 -2.62964,3.58513 -4.13137,2.0834 -0.72828,-0.72827 -0.91012,-0.72827 -1.94988,0 -1.61433,1.13073 -3.12468,0.9989 -4.42603,-0.38632 z m 4.40346,-0.99477 c 1.41831,-1.52627 2.82692,-6.90133 2.14332,-8.17863 -1.12943,-2.11036 -3.57927,-0.59672 -4.86385,3.00514 -0.74566,2.09075 -0.96918,5.42004 -0.40199,5.98723 0.68097,0.68098 2.06989,0.31901 3.12252,-0.81374 z"
       id="path3331"
       inkscape:connector-curvature="0" />
    <g
       id="g4260">
      <g
         id="g4155">
        <g
           id="g3871"
           transform="translate(-3.8146973e-6,-1.1444092e-5)">
          <path
             d="m 270.72088,367.98383 c 0,33.19456 -26.90951,60.10407 -60.10407,60.10407 -33.19457,0 -60.10408,-26.90951 -60.10408,-60.10407 0,-33.19457 26.90951,-60.10408 60.10408,-60.10408 33.19456,0 60.10407,26.90951 60.10407,60.10408 z"
             sodipodi:ry="60.104076"
             sodipodi:rx="60.104076"
             sodipodi:cy="367.98383"
             sodipodi:cx="210.61681"
             id="path2985"
             style="opacity:0.92468621;fill:none;stroke:#646464;stroke-width:1;stroke-linecap:butt;stroke-linejoin:round;stroke-miterlimit:4;stroke-opacity:1;stroke-dasharray:none;stroke-dashoffset:0"
             sodipodi:type="arc" />
          <g
             transform="translate(129.8046,-103.03556)"
             id="g3820">
            <text
               xml:space="preserve"
               style="font-size:40px;font-style:normal;font-weight:normal;line-height:125%;letter-spacing:0px;word-spacing:0px;fill:#000000;fill-opacity:1;stroke:none;font-family:Sans"
               x="71.215752"
               y="470.51431"
               id="text3780"
               sodipodi:linespacing="125%"><tspan
                 sodipodi:role="line"
                 id="tspan3782"
                 x="71.215752"
                 y="470.51431"
                 style="font-size:16px" /></text>
            <text
               xml:space="preserve"
               style="font-size:40px;font-style:normal;font-weight:normal;line-height:125%;letter-spacing:0px;word-spacing:0px;fill:#000000;fill-opacity:1;stroke:none;font-family:Sans"
               x="81.82235"
               y="477.08029"
               id="text3784"
               sodipodi:linespacing="125%"><tspan
                 sodipodi:role="line"
                 id="tspan3786"
                 x="81.82235"
                 y="477.08029"
                 style="font-size:10px" /><tspan
                 sodipodi:role="line"
                 x="81.82235"
                 y="489.58029"
                 id="tspan3788" /></text>
          </g>
        </g>
        <path
           style="fill:#000000"
           d="m 227.6322,368.63605 c 1.17893,-0.46135 1.26282,-0.82211 1.26282,-5.4297 0,-4.73524 -0.0513,-4.93808 -1.26282,-4.9989 -1.14421,-0.0574 -1.15739,-0.0886 -0.14032,-0.33202 0.61739,-0.14774 1.39833,-0.48593 1.73542,-0.75152 1.10992,-0.87449 1.3515,0.17026 1.3515,5.84468 0,5.38175 0.0511,5.61805 1.26284,5.84529 0.69456,0.13024 -0.25256,0.2547 -2.10473,0.27658 -2.53552,0.0299 -3.05554,-0.0823 -2.10471,-0.45441 z m -12.7848,-4.64659 c -0.94194,-1.10498 -0.83296,-3.50007 0.31197,-6.85607 0.51191,-1.50052 0.79062,-3.08378 0.61933,-3.51834 -0.4609,-1.16938 -1.81571,-0.42211 -2.81642,1.55343 -0.48372,0.95495 -0.88524,1.41274 -0.89227,1.01731 -0.0408,-2.2943 2.65485,-4.32886 4.47731,-3.37929 1.39554,0.72715 1.39487,1.56807 -0.004,5.91478 -1.25406,3.89484 -0.85577,5.56033 1.32971,5.56033 3.21214,0 6.22764,-6.86717 4.31105,-9.81748 -0.58204,-0.89595 0.33579,-2.39007 1.16261,-1.89258 1.53167,0.92162 -0.2591,8.39088 -2.60174,10.85187 -1.54246,1.62038 -4.73676,1.92699 -5.8969,0.56604 z"
           id="path3025"
           inkscape:connector-curvature="0" />
        <path
           sodipodi:type="arc"
           style="opacity:0.92468621;fill:none;stroke:#000000;stroke-width:1.60000002;stroke-linecap:butt;stroke-linejoin:round;stroke-miterlimit:4;stroke-opacity:1;stroke-dasharray:none;stroke-dashoffset:0"
           id="path3333"
           sodipodi:cx="363.14984"
           sodipodi:cy="300.55615"
           sodipodi:rx="3.0304575"
           sodipodi:ry="2.7779195"
           d="m 366.1803,300.55615 a 3.0304575,2.7779195 0 1 1 -6.06092,0 3.0304575,2.7779195 0 1 1 6.06092,0 z"
           transform="translate(-152.53304,67.427662)" />
      </g>
      <g
         id="g4249">
        <g
           id="g3890"
           transform="translate(-62.629458,30.771593)">
          <path
             d="m 270.72088,367.98383 c 0,33.19456 -26.90951,60.10407 -60.10407,60.10407 -33.19457,0 -60.10408,-26.90951 -60.10408,-60.10407 0,-33.19457 26.90951,-60.10408 60.10408,-60.10408 33.19456,0 60.10407,26.90951 60.10407,60.10408 z"
             sodipodi:ry="60.104076"
             sodipodi:rx="60.104076"
             sodipodi:cy="367.98383"
             sodipodi:cx="210.61681"
             id="path2985-60"
             style="opacity:0.92468621;fill:none;stroke:#646464;stroke-width:1;stroke-linecap:butt;stroke-linejoin:round;stroke-miterlimit:4;stroke-opacity:1;stroke-dasharray:none;stroke-dashoffset:0"
             sodipodi:type="arc"
             transform="translate(62.629454,105.56095)" />
          <text
             sodipodi:linespacing="125%"
             id="text3780-6"
             y="477.26764"
             x="267.81229"
             style="font-size:40px;font-style:normal;font-weight:normal;line-height:125%;letter-spacing:0px;word-spacing:0px;fill:#000000;fill-opacity:1;stroke:none;font-family:Sans"
             xml:space="preserve"><tspan
               style="font-size:16px;font-style:italic;font-variant:normal;font-weight:normal;font-stretch:normal;font-family:cmr10;-inkscape-font-specification:cmr10 Italic"
               y="477.26764"
               x="267.81229"
               id="tspan3782-9"
               sodipodi:role="line" /></text>
          <text
             sodipodi:linespacing="125%"
             id="text3784-6"
             y="483.83362"
             x="278.41888"
             style="font-size:40px;font-style:normal;font-weight:normal;line-height:125%;letter-spacing:0px;word-spacing:0px;fill:#000000;fill-opacity:1;stroke:none;font-family:Sans"
             xml:space="preserve"><tspan
               style="font-size:10px"
               y="483.83362"
               x="278.41888"
               id="tspan3786-9"
               sodipodi:role="line" /><tspan
               id="tspan3788-9"
               y="496.33362"
               x="278.41888"
               sodipodi:role="line" /></text>
        </g>
        <path
           style="fill:#000000"
           d="m 224.29152,504.70812 c 0,-0.19426 1.15867,-1.6273 2.57483,-3.18454 1.41616,-1.55723 2.72252,-3.44331 2.90304,-4.19127 0.48772,-2.02096 -0.54995,-3.62292 -2.34676,-3.62292 -1.72754,0 -2.43982,0.80422 -1.62101,1.83026 0.61931,0.77604 0.25094,1.41315 -0.81706,1.41315 -1.04654,0 -0.83083,-2.01898 0.34653,-3.24341 1.2436,-1.29331 3.49029,-1.39924 5.08223,-0.23963 0.82994,0.60455 1.15523,1.38937 1.15523,2.78713 0,1.65463 -0.40813,2.33676 -2.72889,4.56085 l -2.72889,2.61522 2.18328,0.003 c 1.53334,0.002 2.34099,-0.27828 2.71308,-0.94266 0.43885,-0.78359 0.53253,-0.64439 0.54562,0.81085 l 0.0158,1.75687 -3.63853,0 c -2.00118,0 -3.63852,-0.15894 -3.63852,-0.3532 z m -9.58994,-4.70585 c -1.57559,-1.63858 -1.60932,-2.38068 -0.28605,-6.29288 0.55311,-1.63521 1.01328,-3.27719 1.02261,-3.64883 0.0323,-1.28759 -1.59485,-0.66819 -2.4762,0.94258 -1.12416,2.05455 -1.94896,2.14223 -0.93308,0.0992 0.98339,-1.97767 2.11744,-2.93274 3.21562,-2.70811 1.73325,0.35455 2.02096,1.7751 1.04113,5.14063 -1.19627,4.10895 -0.98404,6.33012 0.62753,6.56771 1.55464,0.2292 2.64113,-0.74588 3.81082,-3.42004 1.07721,-2.46275 1.24659,-5.17065 0.3798,-6.07208 -0.65156,-0.67761 -0.26016,-2.30672 0.55421,-2.30672 1.77522,0 1.41959,5.4445 -0.62049,9.4993 -1.709,3.39678 -4.3147,4.30124 -6.3359,2.19925 z"
           id="path3040"
           inkscape:connector-curvature="0" />
        <path
           sodipodi:type="arc"
           style="opacity:0.92468621;fill:none;stroke:#000000;stroke-width:1.60000002;stroke-linecap:butt;stroke-linejoin:round;stroke-miterlimit:4;stroke-opacity:1;stroke-dasharray:none;stroke-dashoffset:0"
           id="path3333-0"
           sodipodi:cx="363.14984"
           sodipodi:cy="300.55615"
           sodipodi:rx="3.0304575"
           sodipodi:ry="2.7779195"
           d="m 366.1803,300.55615 a 3.0304575,2.7779195 0 1 1 -6.06092,0 3.0304575,2.7779195 0 1 1 6.06092,0 z"
           transform="translate(-152.53304,203.76022)" />
      </g>
    </g>
    <path
       sodipodi:type="arc"
       style="opacity:0.92468621;fill:#000000;fill-opacity:1;stroke:#000000;stroke-width:1.60000002;stroke-linecap:butt;stroke-linejoin:round;stroke-miterlimit:4;stroke-opacity:1;stroke-dasharray:none;stroke-dashoffset:0"
       id="path3333-0-9"
       sodipodi:cx="363.14984"
       sodipodi:cy="300.55615"
       sodipodi:rx="3.0304575"
       sodipodi:ry="2.7779195"
       d="m 366.1803,300.55615 a 3.0304575,2.7779195 0 1 1 -6.06092,0 3.0304575,2.7779195 0 1 1 6.06092,0 z"
       transform="translate(-82.832512,135.59394)" />
    <path
       sodipodi:type="arc"
       style="opacity:0.92468621;fill:#000000;fill-opacity:1;stroke:#000000;stroke-width:1.60000002;stroke-linecap:butt;stroke-linejoin:round;stroke-miterlimit:4;stroke-opacity:1;stroke-dasharray:none;stroke-dashoffset:0"
       id="path3333-0-9-2"
       sodipodi:cx="363.14984"
       sodipodi:cy="300.55615"
       sodipodi:rx="3.0304575"
       sodipodi:ry="2.7779195"
       d="m 366.1803,300.55615 a 3.0304575,2.7779195 0 1 1 -6.06092,0 3.0304575,2.7779195 0 1 1 6.06092,0 z"
       transform="translate(18.685267,135.59394)" />
    <path
       style="fill:#000000"
       d="m 203.29722,325.98169 c -0.44997,-0.11759 -0.73105,-0.59197 -0.73105,-1.23383 0,-0.84245 0.18056,-1.01713 0.93992,-0.90929 0.6275,0.0891 0.89913,0.37649 0.81718,0.86454 -0.0889,0.52957 0.15739,0.73106 0.89364,0.73106 1.43886,0 2.65348,-1.19238 3.15532,-3.09754 0.32786,-1.24466 0.31451,-1.51916 -0.0559,-1.1488 -0.84737,0.84738 -3.1271,0.58555 -3.84668,-0.44179 -0.81898,-1.16927 -0.83789,-3.76322 -0.0387,-5.3087 1.26738,-2.45083 4.62993,-4.2731 5.44662,-2.95168 0.14252,0.2306 0.71756,0.30421 1.27788,0.16358 0.7046,-0.17684 1.01991,-0.0807 1.0225,0.31178 0.009,1.31344 -2.23495,10.25543 -2.7977,11.15037 -1.01878,1.62017 -3.78532,2.47077 -6.08309,1.8703 z m 5.26421,-5.9154 c 0.75569,-0.84205 1.76541,-5.51534 1.39833,-6.47193 -0.68298,-1.77981 -3.29926,-0.0838 -4.05231,2.62701 -0.57489,2.0694 -0.52051,4.51319 0.1051,4.72369 0.78401,0.26379 1.85481,-0.10539 2.54888,-0.87877 z m 5.07494,4.53239 c 0.142,-0.22976 0.62306,-0.41774 1.06901,-0.41774 0.74161,0 0.81083,-0.31602 0.81083,-3.70176 l 0,-3.70177 -1.04435,0.19965 c -1.29799,0.24812 -1.39838,-0.55907 -0.10444,-0.8397 0.51696,-0.11212 1.2689,-0.34213 1.67097,-0.51113 0.66961,-0.28146 0.73105,0.0651 0.73105,4.12371 0,4.10759 0.0592,4.431 0.81084,4.431 0.44595,0 0.92701,0.18798 1.06901,0.41774 0.16218,0.26242 -0.76974,0.41774 -2.50646,0.41774 -1.73672,0 -2.66864,-0.15532 -2.50646,-0.41774 z"
       id="path4489"
       inkscape:connector-curvature="0" />
    <path
       style="fill:#000000"
       d="m 203.06238,460.83705 c -0.44997,-0.11759 -0.73105,-0.59197 -0.73105,-1.23383 0,-0.84245 0.18056,-1.01713 0.93993,-0.90929 0.62749,0.0891 0.89912,0.37649 0.81717,0.86454 -0.0889,0.52957 0.15738,0.73106 0.89364,0.73106 1.43886,0 2.65348,-1.19238 3.15532,-3.09754 0.32786,-1.24466 0.31451,-1.51916 -0.0558,-1.1488 -0.84737,0.84738 -3.1271,0.58555 -3.84667,-0.44179 -0.81899,-1.16927 -0.83789,-3.76322 -0.0387,-5.3087 1.26737,-2.45083 4.62993,-4.2731 5.44661,-2.95168 0.14252,0.2306 0.71757,0.30421 1.27788,0.16358 0.70461,-0.17684 1.01991,-0.0807 1.0225,0.31178 0.009,1.31344 -2.23495,10.25543 -2.7977,11.15037 -1.01878,1.62017 -3.78532,2.47077 -6.08308,1.8703 z m 5.26421,-5.9154 c 0.75569,-0.84205 1.76541,-5.51534 1.39833,-6.47193 -0.68298,-1.77981 -3.29926,-0.0838 -4.05232,2.62701 -0.57488,2.0694 -0.5205,4.51319 0.10511,4.72369 0.78401,0.26379 1.85481,-0.10539 2.54888,-0.87877 z m 6.22924,2.47811 c 2.44495,-2.64083 3.10259,-4.14578 2.39193,-5.47367 -0.47245,-0.88278 -1.89042,-1.0784 -2.91962,-0.40278 -0.54109,0.35521 -0.54476,0.46402 -0.0269,0.79725 0.49914,0.32117 0.50737,0.49724 0.049,1.04952 -0.71626,0.86304 -1.69545,0.12583 -1.38906,-1.04581 0.56023,-2.14232 3.67308,-2.7166 5.39447,-0.9952 1.47064,1.47064 1.07145,2.82816 -1.56007,5.3052 l -2.10802,1.98428 1.71322,0 c 1.1375,0 1.79403,-0.21057 1.95368,-0.62661 0.41795,-1.08916 0.84943,-0.67822 0.65792,0.62661 l -0.18394,1.25323 -3.13065,0 -3.13066,0 2.28865,-2.47202 z"
       id="path4502"
       inkscape:connector-curvature="0" />
  </g>
</svg>
